HIERARCHY
ROOT mixamorig1:Hips
{
	OFFSET 0.000000 96.705864 0.000000
	CHANNELS 6 Xposition Yposition Zposition Xrotation Yrotation Zrotation
	JOINT mixamorig1:Spine
	{
		OFFSET 0.000000 6.609299 -0.131400
		CHANNELS 3 Xrotation Yrotation Zrotation
		JOINT mixamorig1:Spine1
		{
			OFFSET 0.000000 7.710777 -0.153319
			CHANNELS 3 Xrotation Yrotation Zrotation
			JOINT mixamorig1:Spine2
			{
				OFFSET 0.000000 8.812363 -0.175222
				CHANNELS 3 Xrotation Yrotation Zrotation
				JOINT mixamorig1:Neck
				{
					OFFSET 0.000000 9.913940 -0.197125
					CHANNELS 3 Xrotation Yrotation Zrotation
					JOINT mixamorig1:Head
					{
						OFFSET 0.000000 6.221207 -0.292800
						CHANNELS 3 Xrotation Yrotation Zrotation
						JOINT mixamorig1:HeadTop_End
						{
							OFFSET 0.000000 23.669601 -1.114100
							CHANNELS 3 Xrotation Yrotation Zrotation
							End Site
							{
								OFFSET 0.000000 23.695801 0.000000
							}
						}
					}
				}
				JOINT mixamorig1:LeftShoulder
				{
					OFFSET 3.592800 8.511703 -0.210352
					CHANNELS 3 Xrotation Yrotation Zrotation
					JOINT mixamorig1:LeftArm
					{
						OFFSET 7.289550 -2.739891 -0.026446
						CHANNELS 3 Xrotation Yrotation Zrotation
						JOINT mixamorig1:LeftForeArm
						{
							OFFSET 22.236786 0.000000 -0.000001
							CHANNELS 3 Xrotation Yrotation Zrotation
							JOINT mixamorig1:LeftHand
							{
								OFFSET 22.885803 0.000000 -0.000001
								CHANNELS 3 Xrotation Yrotation Zrotation
								JOINT mixamorig1:LeftHandThumb1
								{
									OFFSET 2.242302 -0.961288 1.492217
									CHANNELS 3 Xrotation Yrotation Zrotation
									JOINT mixamorig1:LeftHandThumb2
									{
										OFFSET 1.772182 -1.023170 1.023169
										CHANNELS 3 Xrotation Yrotation Zrotation
										JOINT mixamorig1:LeftHandThumb3
										{
											OFFSET 1.895149 -1.094162 1.094165
											CHANNELS 3 Xrotation Yrotation Zrotation
											JOINT mixamorig1:LeftHandThumb4
											{
												OFFSET 1.594837 -0.920776 0.920780
												CHANNELS 3 Xrotation Yrotation Zrotation
												End Site
												{
													OFFSET 1.438717 -0.901840 1.164461
												}
											}
										}
									}
								}
								JOINT mixamorig1:LeftHandIndex1
								{
									OFFSET 6.533081 -0.226440 1.405166
									CHANNELS 3 Xrotation Yrotation Zrotation
									JOINT mixamorig1:LeftHandIndex2
									{
										OFFSET 2.386898 0.000000 -0.000000
										CHANNELS 3 Xrotation Yrotation Zrotation
										JOINT mixamorig1:LeftHandIndex3
										{
											OFFSET 2.200699 0.000000 -0.000000
											CHANNELS 3 Xrotation Yrotation Zrotation
											JOINT mixamorig1:LeftHandIndex4
											{
												OFFSET 1.988098 0.000000 -0.000000
												CHANNELS 3 Xrotation Yrotation Zrotation
												End Site
												{
													OFFSET 1.988098 -0.000008 -0.000700
												}
											}
										}
									}
								}
								JOINT mixamorig1:LeftHandMiddle1
								{
									OFFSET 6.412628 0.000000 -0.000000
									CHANNELS 3 Xrotation Yrotation Zrotation
									JOINT mixamorig1:LeftHandMiddle2
									{
										OFFSET 2.737003 0.000000 -0.000000
										CHANNELS 3 Xrotation Yrotation Zrotation
										JOINT mixamorig1:LeftHandMiddle3
										{
											OFFSET 2.474899 0.000000 -0.000000
											CHANNELS 3 Xrotation Yrotation Zrotation
											JOINT mixamorig1:LeftHandMiddle4
											{
												OFFSET 2.337997 0.000000 -0.000000
												CHANNELS 3 Xrotation Yrotation Zrotation
												End Site
												{
													OFFSET 2.337997 0.000015 0.001700
												}
											}
										}
									}
								}
								JOINT mixamorig1:LeftHandRing1
								{
									OFFSET 6.369144 -0.145943 -1.505743
									CHANNELS 3 Xrotation Yrotation Zrotation
									JOINT mixamorig1:LeftHandRing2
									{
										OFFSET 2.271301 0.000000 0.000000
										CHANNELS 3 Xrotation Yrotation Zrotation
										JOINT mixamorig1:LeftHandRing3
										{
											OFFSET 2.183403 0.000000 0.000000
											CHANNELS 3 Xrotation Yrotation Zrotation
											JOINT mixamorig1:LeftHandRing4
											{
												OFFSET 1.894501 0.000000 0.000000
												CHANNELS 3 Xrotation Yrotation Zrotation
												End Site
												{
													OFFSET 1.894501 0.000008 0.002500
												}
											}
										}
									}
								}
								JOINT mixamorig1:LeftHandPinky1
								{
									OFFSET 5.673996 -0.166138 -2.637913
									CHANNELS 3 Xrotation Yrotation Zrotation
									JOINT mixamorig1:LeftHandPinky2
									{
										OFFSET 2.152199 0.000000 0.000000
										CHANNELS 3 Xrotation Yrotation Zrotation
										JOINT mixamorig1:LeftHandPinky3
										{
											OFFSET 1.719402 0.000000 0.000000
											CHANNELS 3 Xrotation Yrotation Zrotation
											JOINT mixamorig1:LeftHandPinky4
											{
												OFFSET 1.555099 0.000000 0.000000
												CHANNELS 3 Xrotation Yrotation Zrotation
												End Site
												{
													OFFSET 1.555099 0.000000 0.000100
												}
											}
										}
									}
								}
							}
						}
					}
				}
				JOINT mixamorig1:RightShoulder
				{
					OFFSET -3.592800 8.511719 -0.183947
					CHANNELS 3 Xrotation Yrotation Zrotation
					JOINT mixamorig1:RightArm
					{
						OFFSET -7.289540 -2.739922 0.026446
						CHANNELS 3 Xrotation Yrotation Zrotation
						JOINT mixamorig1:RightForeArm
						{
							OFFSET -22.237789 0.000008 0.000001
							CHANNELS 3 Xrotation Yrotation Zrotation
							JOINT mixamorig1:RightHand
							{
								OFFSET -22.885906 0.000000 0.000001
								CHANNELS 3 Xrotation Yrotation Zrotation
								JOINT mixamorig1:RightHandThumb1
								{
									OFFSET -2.210213 -0.972252 1.433693
									CHANNELS 3 Xrotation Yrotation Zrotation
									JOINT mixamorig1:RightHandThumb2
									{
										OFFSET -1.740135 -1.004669 1.004668
										CHANNELS 3 Xrotation Yrotation Zrotation
										JOINT mixamorig1:RightHandThumb3
										{
											OFFSET -1.916977 -1.106766 1.106768
											CHANNELS 3 Xrotation Yrotation Zrotation
											JOINT mixamorig1:RightHandThumb4
											{
												OFFSET -1.669712 -0.964012 0.964009
												CHANNELS 3 Xrotation Yrotation Zrotation
												End Site
												{
													OFFSET -1.564342 -0.957275 1.132703
												}
											}
										}
									}
								}
								JOINT mixamorig1:RightHandIndex1
								{
									OFFSET -6.642605 -0.242622 1.429156
									CHANNELS 3 Xrotation Yrotation Zrotation
									JOINT mixamorig1:RightHandIndex2
									{
										OFFSET -2.322498 0.000000 0.000000
										CHANNELS 3 Xrotation Yrotation Zrotation
										JOINT mixamorig1:RightHandIndex3
										{
											OFFSET -2.152603 0.000000 0.000000
											CHANNELS 3 Xrotation Yrotation Zrotation
											JOINT mixamorig1:RightHandIndex4
											{
												OFFSET -1.991699 0.000000 0.000000
												CHANNELS 3 Xrotation Yrotation Zrotation
												End Site
												{
													OFFSET -1.991699 0.000008 -0.002700
												}
											}
										}
									}
								}
								JOINT mixamorig1:RightHandMiddle1
								{
									OFFSET -6.285316 0.000000 0.000000
									CHANNELS 3 Xrotation Yrotation Zrotation
									JOINT mixamorig1:RightHandMiddle2
									{
										OFFSET -2.708908 0.000000 0.000000
										CHANNELS 3 Xrotation Yrotation Zrotation
										JOINT mixamorig1:RightHandMiddle3
										{
											OFFSET -2.556503 0.000000 0.000000
											CHANNELS 3 Xrotation Yrotation Zrotation
											JOINT mixamorig1:RightHandMiddle4
											{
												OFFSET -2.418808 0.000000 0.000000
												CHANNELS 3 Xrotation Yrotation Zrotation
												End Site
												{
													OFFSET -2.418800 -0.000031 0.006600
												}
											}
										}
									}
								}
								JOINT mixamorig1:RightHandRing1
								{
									OFFSET -6.311737 -0.140022 -1.484962
									CHANNELS 3 Xrotation Yrotation Zrotation
									JOINT mixamorig1:RightHandRing2
									{
										OFFSET -2.346802 0.000000 0.000000
										CHANNELS 3 Xrotation Yrotation Zrotation
										JOINT mixamorig1:RightHandRing3
										{
											OFFSET -2.156898 0.000000 0.000000
											CHANNELS 3 Xrotation Yrotation Zrotation
											JOINT mixamorig1:RightHandRing4
											{
												OFFSET -2.027908 0.000000 0.000000
												CHANNELS 3 Xrotation Yrotation Zrotation
												End Site
												{
													OFFSET -2.027901 -0.000053 0.006000
												}
											}
										}
									}
								}
								JOINT mixamorig1:RightHandPinky1
								{
									OFFSET -5.732719 -0.184929 -2.709892
									CHANNELS 3 Xrotation Yrotation Zrotation
									JOINT mixamorig1:RightHandPinky2
									{
										OFFSET -2.102402 0.000000 0.000000
										CHANNELS 3 Xrotation Yrotation Zrotation
										JOINT mixamorig1:RightHandPinky3
										{
											OFFSET -1.653503 0.000000 0.000000
											CHANNELS 3 Xrotation Yrotation Zrotation
											JOINT mixamorig1:RightHandPinky4
											{
												OFFSET -1.581902 0.000000 0.000000
												CHANNELS 3 Xrotation Yrotation Zrotation
												End Site
												{
													OFFSET -1.581902 0.000000 -0.000500
												}
											}
										}
									}
								}
							}
						}
					}
				}
			}
		}
	}
	JOINT mixamorig1:LeftUpLeg
	{
		OFFSET 5.970200 -11.540100 -0.123100
		CHANNELS 3 Xrotation Yrotation Zrotation
		JOINT mixamorig1:LeftLeg
		{
			OFFSET 0.198467 -31.475304 -0.169218
			CHANNELS 3 Xrotation Yrotation Zrotation
			JOINT mixamorig1:LeftFoot
			{
				OFFSET -0.198476 -45.868210 -5.442563
				CHANNELS 3 Xrotation Yrotation Zrotation
				JOINT mixamorig1:LeftToeBase
				{
					OFFSET 0.088007 -7.354763 11.880190
					CHANNELS 3 Xrotation Yrotation Zrotation
					JOINT mixamorig1:LeftToe_End
					{
						OFFSET 0.223626 0.001065 5.232024
						CHANNELS 3 Xrotation Yrotation Zrotation
						End Site
						{
							OFFSET 0.223626 0.001065 5.232023
						}
					}
				}
			}
		}
	}
	JOINT mixamorig1:RightUpLeg
	{
		OFFSET -5.970200 -11.540100 -0.123100
		CHANNELS 3 Xrotation Yrotation Zrotation
		JOINT mixamorig1:RightLeg
		{
			OFFSET -0.198455 -31.475277 -0.097332
			CHANNELS 3 Xrotation Yrotation Zrotation
			JOINT mixamorig1:RightFoot
			{
				OFFSET 0.198464 -45.868233 -5.038831
				CHANNELS 3 Xrotation Yrotation Zrotation
				JOINT mixamorig1:RightToeBase
				{
					OFFSET -0.087992 -7.354682 11.311314
					CHANNELS 3 Xrotation Yrotation Zrotation
					JOINT mixamorig1:RightToe_End
					{
						OFFSET -0.223623 0.001091 5.048450
						CHANNELS 3 Xrotation Yrotation Zrotation
						End Site
						{
							OFFSET -0.223623 0.001091 5.048450
						}
					}
				}
			}
		}
	}
}
MOTION
Frames: 4
Frame Time: 0.033333
0.258041 88.843185 0.446552 -3.712197 -71.340199 -5.531391 13.331081 -1.433435 0.178968 6.600902 -0.950138 -0.101234 6.602104 -0.946998 -0.072369 -0.621165 1.066711 -0.204161 -0.622126 1.064031 -0.215833 -0.000002 0.000000 -0.000000 0.659450 -7.940500 -7.565701 -17.699576 -75.759222 -49.651193 -0.000008 -47.912739 -0.000037 -21.822864 -10.854713 31.221809 12.918573 -14.352066 3.766697 -7.464482 38.549786 4.014204 2.520147 25.042655 25.644396 -0.000002 -0.000003 0.000005 -0.003124 3.517069 -25.047016 5.392016 5.833121 -85.492351 1.138956 3.472497 -36.309091 0.000000 0.000000 -0.000001 1.040759 5.695720 -26.426393 4.731308 5.743291 -78.948073 1.665169 4.091854 -44.273788 0.000003 -0.000001 0.000002 0.502462 4.733757 -31.731799 5.174296 5.811936 -83.346544 1.678779 4.105714 -44.464115 -0.000003 0.000000 0.000000 -0.296969 3.719402 -35.394170 4.771119 5.750914 -79.345898 0.921019 3.155034 -32.540220 -0.000002 -0.000001 -0.000000 0.591312 10.642574 9.522940 -19.745443 14.107960 48.873470 -0.000313 86.735917 0.000413 -37.038893 6.691024 -3.707081 11.465396 24.105602 10.468522 -4.963196 -36.723755 -15.282021 3.614978 -37.001857 -26.660547 0.000000 -0.000000 0.000000 -4.243249 -1.792208 55.650151 2.182800 -3.946727 57.878306 1.337689 -3.268361 44.507681 -0.000000 -0.000000 -0.000001 -0.401998 -4.272627 53.100951 2.281442 -4.006782 59.300502 1.784739 -3.667344 51.887878 0.000000 0.000000 0.000002 1.038817 -5.285606 50.092901 2.441001 -4.097118 61.558460 1.928822 -3.775738 54.107707 0.000000 -0.000000 0.000002 3.552063 -7.249839 52.615577 1.453459 -3.381916 46.503398 1.796596 -3.676618 52.073519 -0.000001 0.000000 0.000000 -36.669605 16.165582 31.250820 36.391538 4.057290 0.519893 1.273119 0.395341 -14.030791 -0.465646 0.000023 -0.000002 -0.000000 -0.000005 0.000000 -32.780335 -9.693271 -18.162656 35.736581 7.894846 -5.505164 -7.302352 2.888821 20.201254 -0.418432 -0.000016 -0.000002 0.000000 0.000001 0.000000 
0.208131 88.951241 0.496134 -3.141998 -71.353108 -4.997369 13.044796 -1.464988 0.260133 6.471410 -0.957134 -0.076176 6.472168 -0.957052 -0.049944 -0.620832 1.079441 -0.191270 -0.622095 1.076682 -0.202876 -0.000001 0.000001 0.000001 0.670275 -7.730199 -7.199022 -18.645699 -76.002233 -50.732651 0.000005 -47.951640 -0.000031 -22.145717 -10.825227 31.385406 12.918575 -14.352077 3.766702 -7.464482 38.549782 4.014197 2.520145 25.042661 25.644394 -0.000001 0.000003 0.000001 -0.003124 3.517067 -25.047017 5.392016 5.833120 -85.492358 1.138956 3.472499 -36.309088 -0.000004 0.000001 -0.000002 1.040763 5.695723 -26.426396 4.731310 5.743288 -78.948080 1.665169 4.091851 -44.273788 0.000003 -0.000000 0.000001 0.502462 4.733758 -31.731799 5.174299 5.811939 -83.346538 1.678783 4.105713 -44.464118 -0.000000 -0.000000 -0.000000 -0.296964 3.719400 -35.394170 4.771114 5.750912 -79.345891 0.921019 3.155033 -32.540220 0.000000 0.000000 -0.000002 0.608315 10.504324 9.263372 -19.571659 14.345827 48.873019 -0.000153 86.800879 0.000031 -37.285005 6.580242 -3.840670 11.465393 24.105602 10.468522 -4.963192 -36.723755 -15.282017 3.614979 -37.001860 -26.660545 0.000000 -0.000006 -0.000001 -4.243251 -1.792209 55.650158 2.182801 -3.946727 57.878299 1.337689 -3.268360 44.507671 0.000001 0.000000 -0.000001 -0.401998 -4.272627 53.100954 2.281440 -4.006782 59.300502 1.784740 -3.667344 51.887871 -0.000000 -0.000000 -0.000000 1.038816 -5.285608 50.092901 2.440998 -4.097119 61.558460 1.928822 -3.775737 54.107707 -0.000000 -0.000000 0.000002 3.552064 -7.249839 52.615584 1.453461 -3.381916 46.503398 1.796598 -3.676618 52.073516 0.000000 -0.000000 0.000000 -36.491051 16.126150 31.075042 36.006261 4.287862 0.468661 1.385024 0.378301 -14.033170 -0.462239 -0.000003 0.000009 -0.000000 -0.000000 0.000000 -32.606165 -9.668626 -18.070573 35.254377 7.896814 -5.472403 -7.124359 2.747832 20.256248 -0.433786 0.000043 0.000010 -0.000001 0.000001 0.000000 
0.157009 89.057816 0.544993 -2.576631 -71.365757 -4.469563 12.785050 -1.526897 0.348696 6.355601 -0.978330 -0.048743 6.355923 -0.981217 -0.025187 -0.618215 1.090947 -0.177073 -0.619790 1.088203 -0.188647 0.000004 0.000000 0.000001 0.678622 -7.483309 -6.849971 -18.971120 -76.346079 -51.094425 -0.000009 -48.104298 -0.000021 -22.623393 -10.786481 31.668671 12.918575 -14.352068 3.766695 -7.464480 38.549782 4.014198 2.520147 25.042653 25.644399 0.000005 -0.000004 0.000004 -0.003125 3.517070 -25.047023 5.392016 5.833121 -85.492358 1.138954 3.472496 -36.309098 -0.000000 0.000001 -0.000002 1.040761 5.695723 -26.426396 4.731307 5.743288 -78.948073 1.665167 4.091851 -44.273788 -0.000003 -0.000001 -0.000000 0.502460 4.733761 -31.731802 5.174300 5.811938 -83.346538 1.678780 4.105714 -44.464111 -0.000000 0.000000 0.000000 -0.296968 3.719403 -35.394173 4.771119 5.750913 -79.345891 0.921018 3.155036 -32.540220 -0.000003 0.000000 0.000000 0.623484 10.260797 9.031423 -19.462890 14.786292 48.878913 -0.000037 86.816328 0.000072 -37.531186 6.468268 -3.961286 11.465393 24.105604 10.468516 -4.963189 -36.723755 -15.282012 3.614975 -37.001857 -26.660547 -0.000003 -0.000004 0.000001 -4.243250 -1.792209 55.650151 2.182800 -3.946726 57.878306 1.337690 -3.268359 44.507681 0.000000 -0.000000 0.000000 -0.401998 -4.272627 53.100947 2.281439 -4.006783 59.300502 1.784740 -3.667344 51.887871 -0.000000 -0.000000 -0.000000 1.038816 -5.285607 50.092904 2.441000 -4.097118 61.558460 1.928823 -3.775737 54.107714 0.000000 -0.000000 0.000001 3.552062 -7.249839 52.615580 1.453461 -3.381916 46.503401 1.796595 -3.676619 52.073516 -0.000001 -0.000000 -0.000000 -36.321580 16.099463 30.904096 35.621759 4.507907 0.431688 1.497065 0.361989 -14.037441 -0.450691 0.000010 -0.000001 0.000000 0.000002 0.000001 -32.441288 -9.661110 -17.995566 34.775225 7.928875 -5.429713 -6.921967 2.607463 20.336969 -0.476978 0.000016 0.000008 -0.000001 0.000002 0.000001 
0.104235 89.159180 0.591869 -2.031985 -71.379520 -3.964771 12.556804 -1.590120 0.428042 6.255389 -1.002559 -0.024758 6.255310 -1.008024 -0.003430 -0.615933 1.102165 -0.162390 -0.617800 1.099389 -0.173968 0.000001 0.000000 0.000000 0.685361 -7.238323 -6.499322 -18.853825 -76.790601 -50.913975 0.000004 -48.316680 0.000014 -23.222898 -10.749331 32.033758 12.918574 -14.352068 3.766698 -7.464486 38.549782 4.014202 2.520148 25.042653 25.644396 0.000003 0.000002 -0.000000 -0.003129 3.517068 -25.047024 5.392013 5.833117 -85.492358 1.138956 3.472495 -36.309091 0.000001 -0.000001 0.000002 1.040760 5.695723 -26.426398 4.731308 5.743288 -78.948080 1.665170 4.091851 -44.273795 -0.000002 -0.000001 0.000001 0.502460 4.733759 -31.731806 5.174296 5.811936 -83.346538 1.678786 4.105709 -44.464115 0.000000 0.000000 -0.000000 -0.296968 3.719402 -35.394173 4.771117 5.750912 -79.345891 0.921020 3.155032 -32.540216 0.000000 0.000000 -0.000001 0.638403 10.043239 8.782200 -19.355050 15.224058 48.840330 -0.000413 86.875457 0.000484 -37.806381 6.391492 -4.123673 11.465391 24.105597 10.468516 -4.963195 -36.723748 -15.282016 3.614972 -37.001850 -26.660539 -0.000001 0.000004 0.000002 -4.243251 -1.792209 55.650151 2.182801 -3.946726 57.878299 1.337690 -3.268361 44.507678 0.000000 -0.000000 -0.000001 -0.401997 -4.272626 53.100947 2.281439 -4.006782 59.300502 1.784740 -3.667344 51.887868 -0.000000 -0.000000 0.000002 1.038816 -5.285607 50.092908 2.441000 -4.097118 61.558460 1.928824 -3.775738 54.107703 0.000000 0.000000 0.000000 3.552063 -7.249840 52.615577 1.453459 -3.381915 46.503401 1.796596 -3.676617 52.073519 0.000001 -0.000000 -0.000000 -36.165534 16.083004 30.746513 35.251897 4.710948 0.407886 1.603724 0.346789 -14.044700 -0.436620 -0.000011 -0.000004 0.000000 0.000004 0.000000 -32.275933 -9.650610 -17.904322 34.313764 7.944642 -5.404560 -6.741473 2.477723 20.404172 -0.509159 -0.000008 -0.000004 -0.000000 -0.000000 0.000000 
